<?xml version="1.0" encoding="UTF-8" standalone="no"?><!DOCTYPE svg PUBLIC "-//W3C//DTD SVG 1.1//EN" "http://www.w3.org/Graphics/SVG/1.1/DTD/svg11.dtd"><svg width="100%" height="100%" viewBox="0 0 250 265" version="1.1" xmlns="http://www.w3.org/2000/svg" xmlns:xlink="http://www.w3.org/1999/xlink" xml:space="preserve" xmlns:serif="http://www.serif.com/" style="fill-rule:evenodd;clip-rule:evenodd;stroke-linejoin:round;stroke-miterlimit:2;"><path d="M36.598,203.31c1.133,1.663 25.467,37.46 84.903,37.46c59.495,-0 105.056,-51.673 105.056,-107.833c-0,-60.271 -45.561,-109.203 -105.056,-109.203c-40.408,-0 -68.402,16.714 -86.169,41.29c-9.875,13.659 -14.639,22.37 -22.375,47.483c-3.146,10.212 -0,-9.07 7.51,-31.413c1.397,-4.155 -4.179,-5.939 -7.51,0c-2.861,5.1 -4.316,15.082 -7.554,11.779c-6.047,-6.166 1.922,-16.972 -0,-18.932c-1.548,-1.578 -3.947,4.323 -5.057,2.564c-5.017,-7.945 44.939,-76.505 121.155,-76.505c72.425,0 128.483,59.567 128.483,132.937c0,73.37 -57.429,129.881 -128.483,131.567c-45.611,1.081 -97.252,-27.762 -114.875,-64.413l65.921,-120.603l53.586,113.75l-26.336,0l-29.004,-68.524c-0,0 -24.901,46.345 -35.461,65.999c-3.124,5.815 -0.484,10.026 1.266,12.597Zm156.689,-127.933l-53.742,42.485l-51.94,-38.374l20.712,42.485l31.228,25.346l30.151,-25.346l-0,65.783l23.591,0l-0,-112.379Zm-159.828,-15.963c1.497,1.154 -0.198,4.496 -3.783,9.146c-3.585,4.651 -6.341,6.535 -7.838,5.381c-1.498,-1.155 -1.174,-4.914 2.411,-9.564c3.586,-4.651 7.712,-6.118 9.21,-4.963Z" style="fill:#fff;"/></svg>