<?xml version="1.0" encoding="UTF-8" standalone="no"?><!DOCTYPE svg PUBLIC "-//W3C//DTD SVG 1.1//EN" "http://www.w3.org/Graphics/SVG/1.1/DTD/svg11.dtd"><svg width="100%" height="100%" viewBox="0 0 2500 634" version="1.1" xmlns="http://www.w3.org/2000/svg" xmlns:xlink="http://www.w3.org/1999/xlink" xml:space="preserve" xmlns:serif="http://www.serif.com/" style="fill-rule:evenodd;clip-rule:evenodd;stroke-linejoin:round;stroke-miterlimit:2;"><g><rect x="0" y="0" width="2500" height="629.496" style="fill:none;"/><path d="M827.829,495.731l67.91,-0l0,-156.403l163.896,-0l-0,-58.804l-163.896,-0l0,-79.291l194.058,-0l-0,-59.375l-261.968,0l0,353.873Z" style="fill:#fff;fill-rule:nonzero;"/><path d="M1141.66,201.233l122.542,-0l-0,294.498l67.91,-0l-0,-294.498l122.541,-0l0,-59.375l-312.993,0l0,59.375Z" style="fill:#fff;fill-rule:nonzero;"/><path d="M1723.37,319.315l-125.103,-176.319l-0.854,-1.138l-58.52,0l-0,353.873l67.91,-0l-0,-234.556l27.505,42.682l86.312,123.109l2.275,3.225l87.644,-125.861c12.032,-17.072 21.708,-31.583 28.831,-43.155l-0,234.46l67.913,0l0,-353.777l-58.525,0l-125.388,177.457Z" style="fill:#fff;fill-rule:nonzero;"/><path d="M2322.16,189.479c-35.377,-35.094 -80.054,-52.925 -132.787,-52.925c-52.824,-0 -97.5,17.831 -132.878,52.925c-35.288,35.187 -53.202,78.628 -53.202,129.371c0,51.026 17.914,94.751 53.202,129.938c35.288,35.094 80.054,52.925 132.878,52.925c52.841,-0 97.5,-17.831 132.787,-52.925c35.288,-35.093 53.22,-78.816 53.22,-129.938c-0,-50.743 -17.932,-94.279 -53.22,-129.371Zm-50.449,214.732c-21.907,23.522 -49.425,35.378 -81.763,35.378c-32.716,-0 -60.504,-11.952 -82.608,-35.378c-22.104,-23.522 -33.381,-52.261 -33.381,-85.457c-0,-33.101 11.187,-61.744 33.381,-85.172c22.104,-23.333 49.892,-35.188 82.608,-35.188c32.338,0 59.856,11.855 81.853,35.092c21.996,23.333 33.093,51.977 33.093,85.173c-0.09,33.291 -11.277,62.03 -33.183,85.552Z" style="fill:#fff;fill-rule:nonzero;"/><path d="M73.98,393.107l240.721,-240.72l0,-148.055l-314.701,314.794l73.98,73.981Z" style="fill:#fff;fill-rule:nonzero;"/><path d="M314.678,633.749l0,-204.964l-102.433,102.529l102.433,102.435Z" style="fill:#fff;fill-rule:nonzero;"/><path d="M314.689,214.715l-209.515,209.516l75.783,75.782l133.732,-133.734l-0,-151.564Z" style="fill:#fff;fill-rule:nonzero;"/><path d="M354.162,4.332l-0,148.055l166.646,166.646l-166.646,166.739l-0,148.056l314.701,-314.795l-314.701,-314.701Z" style="fill:#fff;fill-rule:nonzero;"/><path d="M2434.68,15.713c-34.424,0 -61.834,26.747 -61.834,60.038c-0,34.05 27.41,60.702 61.834,60.702c34.712,-0 61.457,-26.747 61.457,-60.702c0,-33.386 -26.655,-60.038 -61.457,-60.038Zm0.378,107.935c-27.032,0 -46.853,-21.245 -46.853,-47.897c0,-26.367 19.731,-47.898 46.475,-47.898c26.745,0 46.097,21.625 46.097,48.277c0,26.273 -19.352,47.518 -45.719,47.518Z" style="fill:#fff;fill-rule:nonzero;"/><path d="M2448.63,77.539l0,-0.759c7.302,-2.182 12.428,-7.303 12.428,-13.942c0,-5.881 -2.554,-10.623 -5.881,-13.184c-4.371,-2.561 -9.479,-4.363 -20.863,-4.363c-9.875,-0 -17.554,0.759 -23.058,1.802l-0,60.038l13.957,-0l-0,-24.186l6.529,0c7.697,0 11.384,2.94 12.428,9.485c1.816,6.923 2.949,12.425 4.748,14.606l14.982,0c-1.421,-2.181 -2.554,-5.88 -4.353,-14.986c-1.816,-7.967 -5.036,-12.33 -10.917,-14.511Zm-16.493,-4.458l-6.546,-0l-0,-17.167c1.42,-0.38 4.064,-0.759 7.679,-0.759c8.813,-0 12.806,3.699 12.806,9.105c0,6.26 -6.259,8.821 -13.939,8.821Z" style="fill:#fff;fill-rule:nonzero;"/></g></svg>