<?xml version="1.0" encoding="UTF-8" standalone="no"?><!DOCTYPE svg PUBLIC "-//W3C//DTD SVG 1.1//EN" "http://www.w3.org/Graphics/SVG/1.1/DTD/svg11.dtd"><svg width="100%" height="100%" viewBox="0 0 1441 1407" version="1.1" xmlns="http://www.w3.org/2000/svg" xmlns:xlink="http://www.w3.org/1999/xlink" xml:space="preserve" xmlns:serif="http://www.serif.com/" style="fill-rule:evenodd;clip-rule:evenodd;stroke-linejoin:round;stroke-miterlimit:2;"><g><ellipse cx="720.313" cy="703.125" rx="720.313" ry="703.125" style="fill:#fff;"/><path d="M731.969,1047.65l0,32.299l-424.891,0l-0,-753.64l30.494,-0l0,721.341l394.397,0Z" style="fill-rule:nonzero;"/><path d="M873.072,1079.94l-156.676,0l-0,-753.64l119.466,-0c86.172,-0 151.127,17.405 194.866,52.216c43.739,34.811 65.608,83.798 65.608,146.96c0,71.775 -27.418,124.53 -82.255,158.265c79.644,33.016 119.466,95.102 119.466,186.256c0,64.598 -21.543,115.738 -64.629,153.42c-43.086,37.682 -108.368,56.523 -195.846,56.523Zm0,-32.299c30.683,0 58.754,-2.691 84.214,-8.074c25.46,-5.384 49.777,-14.355 72.953,-26.916c23.175,-12.561 41.29,-31.043 54.347,-55.447c13.056,-24.403 19.584,-53.472 19.584,-87.207c0,-76.799 -33.62,-128.836 -100.86,-156.111l-58.754,-23.686l54.837,-34.452c45.044,-27.274 67.567,-70.698 67.567,-130.272c-0,-111.251 -77.033,-166.877 -231.098,-166.877l-90.09,-0l0,689.042l127.3,0Z" style="fill-rule:nonzero;"/></g></svg>